<svg width="512" height="479" viewBox="0 0 512 479" fill="none" xmlns="http://www.w3.org/2000/svg">
<g opacity="1">
<path d="M125.333 450.561C125.942 450.97 126.553 451.376 127.166 451.78L115.84 468.796C115.226 468.392 114.615 467.986 114.006 467.576L125.333 450.561ZM399.254 467.4C398.645 467.81 398.033 468.216 397.421 468.621L386.073 451.621C386.686 451.216 387.297 450.809 387.906 450.398L399.254 467.4ZM112.819 441.535C113.4 441.984 113.984 442.43 114.569 442.873L102.151 459.108C101.566 458.665 100.983 458.219 100.402 457.771L112.819 441.535ZM413.219 457.287C412.64 457.737 412.059 458.186 411.475 458.631L399.007 442.434C399.591 441.988 400.172 441.54 400.752 441.09L413.219 457.287ZM100.598 431.421C101.147 431.908 101.699 432.391 102.253 432.873L88.7683 448.233C88.2147 447.752 87.6623 447.269 87.113 446.782L100.598 431.421ZM426.122 446.571C425.573 447.059 425.021 447.543 424.468 448.025L410.965 432.682C411.518 432.199 412.069 431.715 412.617 431.228L426.122 446.571ZM89.5115 420.932C90.028 421.453 90.5466 421.973 91.0681 422.489L76.615 436.942C76.0937 436.426 75.5751 435.906 75.0583 435.385L89.5115 420.932ZM437.94 435.385C437.424 435.906 436.904 436.424 436.383 436.94L421.929 422.487C422.451 421.971 422.97 421.452 423.486 420.931L437.94 435.385ZM79.3171 409.966C79.7997 410.519 80.2844 411.071 80.7722 411.62L65.4275 425.124C64.9401 424.575 64.456 424.023 63.9734 423.47L79.3171 409.966ZM449.231 423.231C448.749 423.785 448.266 424.337 447.78 424.887L432.419 411.401C432.906 410.852 433.389 410.3 433.871 409.746L449.231 423.231ZM69.5652 398.009C70.0102 398.592 70.4585 399.174 70.9089 399.753L54.7117 412.222C54.2613 411.642 53.8133 411.06 53.3679 410.477L69.5652 398.009ZM460.105 409.849C459.662 410.434 459.216 411.017 458.767 411.598L442.532 399.18C442.981 398.599 443.427 398.016 443.87 397.431L460.105 409.849ZM60.3777 385.076C60.7824 385.689 61.1891 386.3 61.5994 386.908L44.5984 398.255C44.1883 397.646 43.7816 397.035 43.3767 396.423L60.3777 385.076ZM469.795 396.16C469.39 396.773 468.984 397.385 468.575 397.994L451.559 386.667C451.969 386.058 452.375 385.447 452.779 384.834L469.795 396.16ZM52.3826 372.075C52.7467 372.713 53.1141 373.348 53.4841 373.982L35.7839 384.202C35.4141 383.568 35.0459 382.933 34.6814 382.295L52.3826 372.075ZM478.317 382.295C477.953 382.933 477.584 383.568 477.215 384.202L459.513 373.982C459.883 373.348 460.251 372.713 460.615 372.075L478.317 382.295ZM45.3767 358.844C45.6996 359.503 46.0254 360.161 46.3542 360.817L28.0378 369.89C27.7092 369.233 27.3834 368.576 27.0603 367.916L45.3767 358.844ZM486.075 367.633C485.753 368.293 485.428 368.951 485.1 369.607L466.773 360.558C467.101 359.901 467.426 359.243 467.748 358.583L486.075 367.633ZM39.0495 344.771C39.3284 345.451 39.6093 346.129 39.8943 346.805L21.0232 354.656C20.7384 353.98 20.4576 353.301 20.1785 352.622L39.0495 344.771ZM493.118 351.894C493.102 351.932 493.088 351.971 493.072 352.01C492.81 352.651 492.543 353.29 492.276 353.929L473.382 346.136C473.638 345.521 473.895 344.906 474.146 344.289C474.172 344.226 474.196 344.163 474.221 344.1L493.118 351.894ZM33.5261 329.901C33.7583 330.597 33.9933 331.292 34.2322 331.986L14.8738 338.547C14.6351 337.852 14.3993 337.157 14.1667 336.461L33.5261 329.901ZM498.93 336.161C498.699 336.857 498.463 337.552 498.225 338.247L478.859 331.711C479.097 331.016 479.332 330.321 479.563 329.624L498.93 336.161ZM29.1658 315.275C29.3524 315.985 29.5418 316.694 29.7351 317.402L9.99095 322.693C9.79775 321.985 9.6096 321.275 9.4226 320.564L29.1658 315.275ZM503.574 320.563C503.387 321.273 503.199 321.982 503.006 322.69L483.26 317.4C483.454 316.692 483.644 315.983 483.831 315.272L503.574 320.563ZM25.821 300.681C25.9621 301.401 26.1077 302.121 26.2556 302.84L6.21459 306.862C6.06705 306.143 5.92131 305.424 5.78002 304.704L25.821 300.681ZM507.277 304.393C507.137 305.113 506.992 305.833 506.845 306.553L486.801 302.555C486.947 301.836 487.091 301.116 487.231 300.396L507.277 304.393ZM23.3562 285.449C23.4497 286.177 23.5459 286.905 23.6462 287.632L3.38549 290.331C3.28543 289.604 3.18922 288.876 3.09545 288.148L23.3562 285.449ZM510.002 287.366C509.91 288.095 509.816 288.823 509.719 289.551L489.449 286.914C489.547 286.186 489.642 285.458 489.733 284.729L510.002 287.366ZM21.866 269.655C21.9102 270.388 21.9585 271.12 22.0095 271.853L1.61205 273.18C1.56126 272.447 1.51297 271.715 1.46849 270.982L21.866 269.655ZM511.548 270.668C511.504 271.4 511.456 272.132 511.406 272.864L491.008 271.563C491.058 270.831 491.105 270.099 491.148 269.366L511.548 270.668ZM511.995 254.399C511.998 255.134 511.997 255.868 511.994 256.602H491.554C491.558 255.868 491.558 255.134 491.554 254.399H511.995ZM21.4441 254.399C21.4406 255.134 21.4397 255.868 21.4431 256.602H1.00267C0.999504 255.868 1.00049 255.134 1.00365 254.399H21.4441ZM21.989 239.438C21.9388 240.17 21.8917 240.902 21.8484 241.635L1.44799 240.333C1.49154 239.6 1.5397 238.868 1.58959 238.136L21.989 239.438ZM511.385 237.821C511.436 238.554 511.486 239.286 511.53 240.019L491.133 241.346C491.088 240.613 491.04 239.881 490.989 239.148L511.385 237.821ZM23.5486 224.086C23.4505 224.814 23.3566 225.541 23.2654 226.27L2.99584 223.633C3.08736 222.905 3.18023 222.177 3.27806 221.449L23.5486 224.086ZM509.612 220.67C509.712 221.397 509.808 222.125 509.902 222.853L489.641 225.552C489.548 224.824 489.451 224.096 489.35 223.369L509.612 220.67ZM26.197 208.444C26.05 209.164 25.9056 209.884 25.7654 210.605L5.71947 206.606C5.8599 205.886 6.0044 205.167 6.15111 204.447L26.197 208.444ZM507.218 206.298L487.177 210.321C487.035 209.601 486.89 208.881 486.742 208.162L506.783 204.14C506.931 204.859 507.076 205.578 507.218 206.298ZM503.043 188.44C503.224 189.105 503.4 189.772 503.575 190.438L483.831 195.728C483.662 195.086 483.493 194.445 483.319 193.805C483.3 193.736 483.28 193.668 483.261 193.6L503.006 188.31C503.017 188.353 503.031 188.397 503.043 188.44ZM29.737 193.599C29.6928 193.761 29.6472 193.923 29.6033 194.085C29.4553 194.632 29.3116 195.179 29.1677 195.727L9.42357 190.436C9.57201 189.872 9.72041 189.308 9.87279 188.745C9.91219 188.6 9.95325 188.454 9.99291 188.309L29.737 193.599ZM34.1384 179.289C33.9006 179.983 33.6658 180.678 33.4343 181.375L14.0671 174.839C14.299 174.142 14.5335 173.446 14.7712 172.752L34.1384 179.289ZM498.124 172.455C498.362 173.149 498.597 173.845 498.83 174.541L479.471 181.102C479.239 180.405 479.004 179.71 478.765 179.016L498.124 172.455ZM39.616 164.865C39.333 165.542 39.0519 166.22 38.7751 166.9L19.8786 159.107C20.1557 158.427 20.4366 157.749 20.7195 157.071L39.616 164.865ZM492.819 158.38L473.948 166.23C473.669 165.551 473.388 164.873 473.103 164.197L491.975 156.346C492.26 157.022 492.54 157.701 492.819 158.38ZM46.2244 150.443C45.8963 151.1 45.5717 151.758 45.2497 152.418L26.9216 143.367C27.2438 142.708 27.5695 142.05 27.8972 141.394L46.2244 150.443ZM484.96 141.111C485.288 141.768 485.613 142.426 485.936 143.085L467.621 152.157C467.298 151.498 466.972 150.84 466.643 150.184L484.96 141.111ZM477.214 126.799C477.583 127.433 477.952 128.068 478.316 128.705L460.614 138.926C460.25 138.288 459.882 137.653 459.512 137.02L477.214 126.799ZM53.4831 137.019C53.1132 137.652 52.7456 138.288 52.3816 138.925L34.6804 128.704C35.0445 128.067 35.4125 127.433 35.782 126.799L53.4831 137.019ZM61.4382 124.334C61.0288 124.943 60.6232 125.554 60.2195 126.167L43.2048 114.842C43.6089 114.229 44.0142 113.617 44.4236 113.008L61.4382 124.334ZM468.398 112.746C468.808 113.355 469.215 113.967 469.62 114.579L452.618 125.926C452.213 125.313 451.807 124.702 451.396 124.094L468.398 112.746ZM70.4656 111.821C70.0169 112.402 69.5698 112.984 69.1267 113.569L52.8923 101.151C53.3357 100.566 53.7817 99.9835 54.2302 99.4024L70.4656 111.821ZM458.286 98.7803C458.736 99.36 459.184 99.941 459.63 100.524L443.432 112.992C442.987 112.408 442.539 111.827 442.089 111.247L458.286 98.7803ZM80.5798 99.5986C80.0928 100.148 79.6084 100.7 79.1267 101.254L63.7663 87.7695C64.2481 87.2159 64.7318 86.6639 65.2185 86.1143L80.5798 99.5986ZM447.57 85.8789C448.058 86.428 448.542 86.9801 449.024 87.5332L433.68 101.036C433.198 100.483 432.713 99.9318 432.225 99.3828L447.57 85.8789ZM436.384 74.0596C436.905 74.5765 437.424 75.095 437.941 75.6162L423.487 90.0703C422.971 89.549 422.452 89.0294 421.93 88.5127L436.384 74.0596ZM91.0681 88.5127C90.5467 89.0293 90.0268 89.5472 89.5105 90.0684L75.0574 75.6162C75.5742 75.0949 76.0934 74.5757 76.615 74.0586L91.0681 88.5127ZM102.034 78.3184C101.481 78.8008 100.929 79.2852 100.381 79.7725L86.8757 64.4277C87.4245 63.9406 87.9768 63.4573 88.53 62.9746L102.034 78.3184ZM424.23 62.7686C424.784 63.2506 425.337 63.7333 425.886 64.2197L412.401 79.5811C411.852 79.0944 411.3 78.6107 410.746 78.1289L424.23 62.7686ZM113.991 68.5674C113.855 68.6709 113.718 68.7731 113.583 68.877C113.135 69.2195 112.69 69.5646 112.246 69.9102L99.7781 53.7139C100.236 53.358 100.694 53.0014 101.155 52.6485C101.277 52.5549 101.4 52.4624 101.522 52.3692L113.991 68.5674ZM411.592 52.457C411.928 52.7139 412.262 52.9741 412.596 53.2324L400.178 69.4678C399.847 69.212 399.517 68.9543 399.184 68.7002C398.934 68.5087 398.681 68.3203 398.429 68.1299L410.847 51.8945C411.095 52.0824 411.344 52.2683 411.592 52.457ZM126.925 59.3799C126.312 59.7845 125.701 60.192 125.093 60.6026L113.745 43.6006C114.354 43.1904 114.965 42.7837 115.577 42.3789L126.925 59.3799ZM397.158 42.2061C397.77 42.61 398.382 43.0164 398.991 43.4258L387.665 60.4404C387.056 60.0308 386.444 59.6244 385.832 59.2207L397.158 42.2061ZM139.924 51.3848C139.286 51.7487 138.651 52.1163 138.017 52.4863L127.798 34.7842C128.431 34.4146 129.066 34.0466 129.703 33.6826L139.924 51.3848ZM385.201 34.7842L374.981 52.4854C374.347 52.1151 373.711 51.7469 373.074 51.3828L383.294 33.6817C383.931 34.046 384.566 34.4142 385.201 34.7842ZM153.156 44.3779C152.497 44.7007 151.839 45.0274 151.182 45.3565L142.11 27.0391C142.766 26.7105 143.424 26.3844 144.083 26.0615L153.156 44.3779ZM368.632 25.9238C369.291 26.246 369.949 26.5715 370.606 26.8994L361.556 45.2266C360.9 44.8984 360.241 44.5729 359.582 44.251L368.632 25.9238ZM167.228 38.0518C166.549 38.3306 165.871 38.6122 165.194 38.8975L157.343 20.0244C158.02 19.7396 158.698 19.4596 159.377 19.1807L167.228 38.0518ZM354.927 19.7217L347.135 38.6172C346.457 38.3341 345.778 38.0541 345.098 37.7774L352.892 18.8809C353.572 19.1578 354.25 19.4389 354.927 19.7217ZM182.099 32.5274C181.403 32.7597 180.708 32.9955 180.013 33.2344L173.453 13.875C174.147 13.6364 174.843 13.4016 175.539 13.169L182.099 32.5274ZM337.161 13.0703C337.858 13.3021 338.553 13.5367 339.248 13.7744L332.711 33.1406C332.016 32.9027 331.321 32.668 330.625 32.4365L337.161 13.0703ZM321.563 8.4258C322.273 8.6127 322.982 8.80117 323.69 8.99415L318.4 28.7383C317.692 28.545 316.983 28.3556 316.273 28.169L321.563 8.4258ZM196.725 28.167C196.015 28.3537 195.306 28.544 194.598 28.7373L189.307 8.9922C190.016 8.79916 190.725 8.61178 191.435 8.42482L196.725 28.167ZM211.319 24.8233C210.598 24.9644 209.879 25.11 209.16 25.2578L205.137 5.21779C205.856 5.07028 206.575 4.92457 207.296 4.78322L211.319 24.8233ZM305.392 4.72267C306.113 4.86321 306.833 5.0076 307.552 5.15431L303.554 25.2002C302.835 25.0533 302.116 24.9088 301.395 24.7686L305.392 4.72267ZM226.551 22.3574C225.822 22.451 225.095 22.5472 224.368 22.6475L221.668 2.38673C222.395 2.28665 223.123 2.19054 223.851 2.09669L226.551 22.3574ZM288.366 1.99708C289.095 2.08869 289.823 2.18245 290.551 2.28029L287.914 22.5498C287.187 22.4517 286.459 22.3579 285.73 22.2666L288.366 1.99708ZM242.344 20.8672C241.612 20.9114 240.879 20.9597 240.147 21.0108L238.82 0.615249C239.552 0.564484 240.284 0.515195 241.017 0.470717L242.344 20.8672ZM271.667 0.451186C272.4 0.494758 273.132 0.54293 273.864 0.592788L272.562 20.9912C271.83 20.9411 271.098 20.8939 270.365 20.8506L271.667 0.451186ZM257.6 0.00489703V20.4453C257.185 20.4434 256.77 20.4402 256.354 20.4404C256.036 20.4406 255.717 20.4438 255.398 20.4453V0.00489703C255.712 0.0035437 256.027 0.00020855 256.342 1.42213e-05C256.761 -0.000244517 257.181 0.00309015 257.6 0.00489703Z" fill="#9BA3A6"/>
<rect x="512" y="254.503" width="2.99415" height="20.9591" transform="rotate(90 512 254.503)" fill="#6155F5"/>
<rect x="385.5" y="476.05" width="2.99415" height="20.9591" transform="rotate(150 385.5 476.05)" fill="#6155F5"/>
<rect x="382.999" y="33.5079" width="2.99415" height="20.9591" transform="rotate(30 382.999 33.5079)" fill="#6155F5"/>
<rect x="478.491" y="382.002" width="2.99415" height="20.9591" transform="rotate(120 478.491 382.002)" fill="#6155F5"/>
<rect x="477.048" y="126.501" width="2.99415" height="20.9591" transform="rotate(60 477.048 126.501)" fill="#6155F5"/>
<rect x="20.959" y="254.503" width="2.99415" height="20.9591" transform="rotate(90 20.959 254.503)" fill="#6155F5"/>
<rect x="254.503" width="2.99415" height="20.9591" fill="#6155F5"/>
<rect x="140.104" y="51.0105" width="2.99415" height="20.9591" transform="rotate(150 140.104 51.0105)" fill="#6155F5"/>
<rect x="137.603" y="458.548" width="2.99415" height="20.9591" transform="rotate(30 137.603 458.548)" fill="#6155F5"/>
<rect x="53.4521" y="136.606" width="2.99415" height="20.9591" transform="rotate(120 53.4521 136.606)" fill="#6155F5"/>
<rect x="52.0088" y="371.898" width="2.99415" height="20.9591" transform="rotate(60 52.0088 371.898)" fill="#6155F5"/>
<circle cx="261.75" cy="243.75" r="127.75" fill="#D8DADC"/>
</g>
</svg>
