<svg width="512" height="532" viewBox="0 0 512 532" fill="none" xmlns="http://www.w3.org/2000/svg">
<g opacity="1">
<path d="M1.29199 308.888C1.19198 308.161 1.09382 307.433 1 306.705L21.3037 304C21.3973 304.728 21.4945 305.456 21.5947 306.183L1.29199 308.888ZM4.12695 325.45C3.97943 324.731 3.83379 324.012 3.69238 323.291L23.7754 319.261C23.9165 319.981 24.0613 320.7 24.209 321.419L4.12695 325.45ZM7.91309 341.311C7.72011 340.603 7.5307 339.893 7.34375 339.184L27.126 333.883C27.3127 334.593 27.5021 335.302 27.6953 336.01L7.91309 341.311ZM12.8027 357.196C12.5642 356.502 12.3293 355.807 12.0967 355.11L31.4932 348.537C31.7256 349.234 31.9604 349.929 32.1992 350.623L12.8027 357.196ZM18.9678 373.336C18.6829 372.659 18.4002 371.982 18.1211 371.303L37.0293 363.437C37.3081 364.116 37.5908 364.793 37.876 365.47L18.9678 373.336ZM25.9932 388.601C25.6645 387.944 25.3376 387.287 25.0146 386.628L43.3672 377.538C43.6898 378.197 44.0159 378.855 44.3447 379.511L25.9932 388.601ZM33.7549 402.941C33.385 402.307 33.0167 401.672 32.6523 401.034L50.3887 390.794C50.7527 391.431 51.1202 392.067 51.4902 392.701L33.7549 402.941ZM42.5879 417.021C42.1777 416.412 41.7691 415.802 41.3643 415.189L58.3994 403.819C58.8041 404.432 59.2116 405.043 59.6221 405.651L42.5879 417.021ZM52.7178 431.017C52.2674 430.437 51.8182 429.856 51.373 429.272L67.6016 416.78C68.0465 417.364 68.4957 417.945 68.9463 418.524L52.7178 431.017ZM63.4541 443.943C62.9666 443.394 62.4815 442.843 61.999 442.29L77.374 428.76C77.8562 429.313 78.3405 429.864 78.8281 430.413L63.4541 443.943ZM74.6621 455.786C74.1408 455.269 73.621 454.751 73.1045 454.23L87.5869 439.748C88.1033 440.269 88.6238 440.787 89.1455 441.304L74.6621 455.786ZM86.8398 467.1C86.2862 466.618 85.7344 466.133 85.1846 465.646L98.6963 450.255C99.246 450.742 99.7977 451.226 100.352 451.708L86.8398 467.1ZM100.247 477.996C99.6623 477.553 99.0802 477.106 98.499 476.657L110.941 460.39C111.523 460.839 112.104 461.286 112.689 461.729L100.247 477.996ZM113.964 487.702C113.351 487.298 112.741 486.89 112.132 486.48L123.48 469.433C124.09 469.842 124.7 470.25 125.312 470.653L113.964 487.702ZM127.855 496.241C127.218 495.877 126.583 495.508 125.949 495.139L136.189 477.402C136.824 477.772 137.458 478.141 138.096 478.505L127.855 496.241ZM142.546 504.018C141.886 503.695 141.229 503.368 140.572 503.04L149.64 484.677C150.297 485.005 150.954 485.331 151.614 485.653L142.546 504.018ZM158.318 511.069C157.639 510.792 156.961 510.511 156.283 510.229L164.091 491.296C164.768 491.579 165.447 491.859 166.127 492.136L158.318 511.069ZM174.081 516.895C173.384 516.663 172.689 516.428 171.994 516.19L178.544 496.786C179.238 497.024 179.933 497.259 180.63 497.49L174.081 516.895ZM189.709 521.548C188.999 521.361 188.29 521.171 187.582 520.978L192.883 501.195C193.591 501.389 194.3 501.579 195.01 501.766L189.709 521.548ZM205.91 525.259C205.189 525.118 204.47 524.973 203.751 524.826L207.757 504.741C208.476 504.888 209.195 505.032 209.916 505.172L205.91 525.259ZM222.97 527.991C222.241 527.9 221.513 527.805 220.786 527.707L223.429 507.396C224.156 507.494 224.884 507.588 225.612 507.68L222.97 527.991Z" fill="#9BA3A6"/>
<path d="M290.896 528.608C290.17 528.708 289.442 528.807 288.714 528.9L286.009 508.597C286.737 508.503 287.465 508.406 288.191 508.306L290.896 528.608ZM307.459 525.773C306.74 525.921 306.02 526.067 305.3 526.208L301.27 506.125C301.99 505.984 302.709 505.839 303.428 505.691L307.459 525.773ZM323.319 521.987C322.611 522.18 321.902 522.37 321.192 522.557L315.892 502.774C316.602 502.588 317.311 502.398 318.019 502.205L323.319 521.987ZM339.205 517.098C338.511 517.336 337.815 517.571 337.119 517.804L330.546 498.407C331.242 498.175 331.938 497.94 332.632 497.701L339.205 517.098ZM355.345 510.933C354.668 511.218 353.991 511.5 353.312 511.779L345.445 492.871C346.125 492.592 346.802 492.31 347.479 492.024L355.345 510.933ZM370.609 503.907C369.953 504.236 369.296 504.563 368.637 504.886L359.547 486.533C360.206 486.211 360.863 485.884 361.52 485.556L370.609 503.907ZM384.95 496.146C384.316 496.515 383.68 496.884 383.043 497.248L372.803 479.512C373.44 479.148 374.076 478.78 374.71 478.41L384.95 496.146ZM399.029 487.312C398.42 487.723 397.811 488.131 397.198 488.536L385.828 471.501C386.441 471.096 387.051 470.689 387.66 470.278L399.029 487.312ZM413.025 477.183C412.445 477.633 411.865 478.082 411.281 478.527L398.789 462.299C399.373 461.854 399.953 461.405 400.533 460.954L413.025 477.183ZM425.952 466.446C425.403 466.934 424.852 467.419 424.299 467.901L410.769 452.526C411.322 452.044 411.873 451.56 412.422 451.072L425.952 466.446ZM437.795 455.238C437.278 455.76 436.76 456.279 436.239 456.796L421.757 442.313C422.278 441.797 422.796 441.277 423.312 440.755L437.795 455.238ZM449.108 443.061C448.627 443.614 448.142 444.166 447.655 444.716L432.264 431.204C432.751 430.654 433.235 430.103 433.717 429.549L449.108 443.061ZM460.005 429.653C459.562 430.238 459.115 430.82 458.666 431.401L442.398 418.959C442.847 418.378 443.295 417.796 443.738 417.211L460.005 429.653ZM469.711 415.937C469.307 416.549 468.899 417.159 468.489 417.769L451.441 406.42C451.851 405.811 452.258 405.201 452.662 404.588L469.711 415.937ZM478.25 402.045C477.886 402.682 477.517 403.317 477.147 403.951L459.411 393.711C459.781 393.077 460.15 392.442 460.514 391.805L478.25 402.045ZM486.026 387.354C485.704 388.014 485.377 388.671 485.049 389.328L466.686 380.261C467.014 379.604 467.34 378.946 467.662 378.286L486.026 387.354ZM493.078 371.582C492.801 372.262 492.52 372.94 492.237 373.617L473.305 365.81C473.588 365.132 473.868 364.454 474.145 363.773L493.078 371.582ZM498.903 355.819C498.671 356.516 498.437 357.212 498.199 357.906L478.795 351.356C479.033 350.662 479.268 349.967 479.499 349.271L498.903 355.819ZM503.557 340.191C503.37 340.901 503.179 341.61 502.986 342.318L483.204 337.018C483.397 336.31 483.588 335.601 483.774 334.891L503.557 340.191ZM507.268 323.99C507.127 324.711 506.982 325.43 506.835 326.149L486.75 322.144C486.897 321.425 487.04 320.705 487.181 319.984L507.268 323.99ZM510 306.931C509.908 307.659 509.814 308.387 509.716 309.114L489.404 306.472C489.502 305.745 489.597 305.017 489.688 304.288L510 306.931Z" fill="#9BA3A6"/>
<path d="M1.29199 238.013C1.19198 238.74 1.09382 239.467 1 240.195L21.3037 242.9C21.3973 242.172 21.4945 241.445 21.5947 240.718L1.29199 238.013ZM4.12695 221.45C3.97943 222.169 3.83379 222.889 3.69238 223.609L23.7754 227.64C23.9165 226.919 24.0613 226.2 24.209 225.481L4.12695 221.45ZM7.91309 205.59C7.72011 206.298 7.5307 207.007 7.34375 207.717L27.126 213.018C27.3127 212.308 27.5021 211.599 27.6953 210.891L7.91309 205.59ZM12.8027 189.704C12.5642 190.398 12.3293 191.094 12.0967 191.79L31.4932 198.363C31.7256 197.667 31.9604 196.971 32.1992 196.277L12.8027 189.704ZM18.9678 173.564C18.6829 174.241 18.4002 174.919 18.1211 175.598L37.0293 183.464C37.3081 182.785 37.5908 182.107 37.876 181.431L18.9678 173.564ZM25.9932 158.3C25.6645 158.956 25.3376 159.613 25.0146 160.272L43.3672 169.362C43.6898 168.703 44.0159 168.046 44.3447 167.39L25.9932 158.3ZM33.7549 143.959C33.385 144.593 33.0167 145.229 32.6523 145.866L50.3887 156.106C50.7527 155.469 51.1202 154.833 51.4902 154.199L33.7549 143.959ZM42.5879 129.88C42.1777 130.489 41.7691 131.099 41.3643 131.711L58.3994 143.081C58.8041 142.469 59.2116 141.858 59.6221 141.249L42.5879 129.88ZM52.7178 115.884C52.2674 116.464 51.8182 117.044 51.373 117.628L67.6016 130.12C68.0465 129.536 68.4957 128.956 68.9463 128.376L52.7178 115.884ZM63.4541 102.957C62.9666 103.506 62.4815 104.057 61.999 104.61L77.374 118.141C77.8562 117.588 78.3405 117.036 78.8281 116.487L63.4541 102.957ZM74.6621 91.1143C74.1408 91.6311 73.621 92.149 73.1045 92.6699L87.5869 107.152C88.1033 106.631 88.6238 106.114 89.1455 105.597L74.6621 91.1143ZM86.8398 79.8008C86.2862 80.2826 85.7344 80.767 85.1846 81.2539L98.6963 96.6455C99.246 96.1584 99.7977 95.674 100.352 95.1924L86.8398 79.8008ZM100.247 68.9043C99.6623 69.3476 99.0802 69.7946 98.499 70.2432L110.941 86.5107C111.523 86.0619 112.104 85.6141 112.689 85.1709L100.247 68.9043ZM113.964 59.1982C113.351 59.6023 112.741 60.0105 112.132 60.4199L123.48 77.4678C124.09 77.0582 124.7 76.6508 125.312 76.2471L113.964 59.1982ZM127.855 50.6592C127.218 51.0234 126.583 51.3919 125.949 51.7617L136.189 69.498C136.824 69.128 137.458 68.7595 138.096 68.3955L127.855 50.6592ZM142.546 42.8828C141.886 43.205 141.229 43.5325 140.572 43.8604L149.64 62.2236C150.297 61.8954 150.954 61.5691 151.614 61.2471L142.546 42.8828ZM158.318 35.8311C157.639 36.108 156.961 36.3891 156.283 36.6719L164.091 55.6045C164.768 55.3214 165.447 55.0414 166.127 54.7646L158.318 35.8311ZM174.081 30.0059C173.384 30.2377 172.689 30.4722 171.994 30.71L178.544 50.1143C179.238 49.8763 179.933 49.6416 180.63 49.4102L174.081 30.0059ZM189.709 25.3525C188.999 25.5395 188.29 25.7299 187.582 25.9229L192.883 45.7051C193.591 45.5118 194.3 45.3215 195.01 45.1348L189.709 25.3525ZM205.91 21.6416C205.189 21.7821 204.47 21.9276 203.751 22.0742L207.757 42.1592C208.476 42.0123 209.195 41.8687 209.916 41.7285L205.91 21.6416ZM222.97 18.9092C222.241 19.0007 221.513 19.0956 220.786 19.1934L223.429 39.5049C224.156 39.4068 224.884 39.312 225.612 39.2207L222.97 18.9092Z" fill="#9BA3A6"/>
<path d="M290.896 18.292C290.17 18.192 289.442 18.0938 288.714 18L286.009 38.3037C286.737 38.3973 287.465 38.4945 288.191 38.5947L290.896 18.292ZM307.459 21.127C306.74 20.9794 306.02 20.8338 305.3 20.6924L301.27 40.7754C301.99 40.9165 302.709 41.0613 303.428 41.209L307.459 21.127ZM323.319 24.9131C322.611 24.7201 321.902 24.5307 321.192 24.3438L315.892 44.126C316.602 44.3127 317.311 44.5021 318.019 44.6953L323.319 24.9131ZM339.205 29.8027C338.511 29.5642 337.815 29.3293 337.119 29.0967L330.546 48.4932C331.242 48.7256 331.938 48.9604 332.632 49.1992L339.205 29.8027ZM355.345 35.9678C354.668 35.6829 353.991 35.4002 353.312 35.1211L345.445 54.0293C346.125 54.3081 346.802 54.5908 347.479 54.876L355.345 35.9678ZM370.609 42.9932C369.953 42.6645 369.296 42.3376 368.637 42.0146L359.547 60.3672C360.206 60.6898 360.863 61.0159 361.52 61.3447L370.609 42.9932ZM384.95 50.7549C384.316 50.385 383.68 50.0167 383.043 49.6523L372.803 67.3887C373.44 67.7527 374.076 68.1202 374.71 68.4902L384.95 50.7549ZM399.029 59.5879C398.42 59.1777 397.811 58.7691 397.198 58.3643L385.828 75.3994C386.441 75.8041 387.051 76.2116 387.66 76.6221L399.029 59.5879ZM413.025 69.7178C412.445 69.2674 411.865 68.8182 411.281 68.373L398.789 84.6016C399.373 85.0465 399.953 85.4957 400.533 85.9463L413.025 69.7178ZM425.952 80.4541C425.403 79.9666 424.852 79.4815 424.299 78.999L410.769 94.374C411.322 94.8562 411.873 95.3405 412.422 95.8281L425.952 80.4541ZM437.795 91.6621C437.278 91.1408 436.76 90.621 436.239 90.1045L421.757 104.587C422.278 105.103 422.796 105.624 423.312 106.146L437.795 91.6621ZM449.108 103.84C448.627 103.286 448.142 102.734 447.655 102.185L432.264 115.696C432.751 116.246 433.235 116.798 433.717 117.352L449.108 103.84ZM460.005 117.247C459.562 116.662 459.115 116.08 458.666 115.499L442.398 127.941C442.847 128.523 443.295 129.104 443.738 129.689L460.005 117.247ZM469.711 130.964C469.307 130.351 468.899 129.741 468.489 129.132L451.441 140.48C451.851 141.09 452.258 141.7 452.662 142.312L469.711 130.964ZM478.25 144.855C477.886 144.218 477.517 143.583 477.147 142.949L459.411 153.189C459.781 153.824 460.15 154.458 460.514 155.096L478.25 144.855ZM486.026 159.546C485.704 158.886 485.377 158.229 485.049 157.572L466.686 166.64C467.014 167.297 467.34 167.954 467.662 168.614L486.026 159.546ZM493.078 175.318C492.801 174.639 492.52 173.961 492.237 173.283L473.305 181.091C473.588 181.768 473.868 182.447 474.145 183.127L493.078 175.318ZM498.903 191.081C498.671 190.384 498.437 189.689 498.199 188.994L478.795 195.544C479.033 196.238 479.268 196.933 479.499 197.63L498.903 191.081ZM503.557 206.709C503.37 205.999 503.179 205.29 502.986 204.582L483.204 209.883C483.397 210.591 483.588 211.3 483.774 212.01L503.557 206.709ZM507.268 222.91C507.127 222.189 506.982 221.47 506.835 220.751L486.75 224.757C486.897 225.476 487.04 226.195 487.181 226.916L507.268 222.91ZM510 239.97C509.908 239.241 509.814 238.513 509.716 237.786L489.404 240.429C489.502 241.156 489.597 241.884 489.688 242.612L510 239.97Z" fill="#9BA3A6"/>
<circle cx="256" cy="264" r="128" fill="#D8DADC"/>
<path d="M267.951 18.9091V48H263.264L249.556 28.1847H249.315V48H244.045V18.9091H248.761L262.454 38.7386H262.71V18.9091H267.951Z" fill="#F64D00"/>
<path d="M490.221 290V260.909H509.141V265.327H495.491V273.224H508.161V277.642H495.491V285.582H509.255V290H490.221Z" fill="#9BA2A6"/>
<path d="M261.691 509.906C261.558 508.666 260.999 507.7 260.015 507.009C259.039 506.317 257.77 505.972 256.208 505.972C255.109 505.972 254.167 506.137 253.381 506.469C252.595 506.8 251.994 507.25 251.577 507.818C251.16 508.386 250.947 509.035 250.938 509.764C250.938 510.37 251.075 510.896 251.35 511.341C251.634 511.786 252.017 512.165 252.5 512.477C252.983 512.78 253.518 513.036 254.105 513.244C254.693 513.453 255.284 513.628 255.881 513.77L258.608 514.452C259.707 514.707 260.763 515.053 261.776 515.489C262.799 515.924 263.712 516.473 264.517 517.136C265.332 517.799 265.976 518.599 266.449 519.537C266.923 520.474 267.159 521.573 267.159 522.832C267.159 524.537 266.724 526.038 265.853 527.335C264.981 528.623 263.722 529.632 262.074 530.361C260.436 531.08 258.452 531.44 256.123 531.44C253.859 531.44 251.894 531.09 250.228 530.389C248.57 529.688 247.273 528.666 246.336 527.321C245.408 525.976 244.906 524.338 244.83 522.406H250.015C250.09 523.42 250.403 524.262 250.952 524.935C251.501 525.607 252.216 526.109 253.097 526.44C253.987 526.772 254.981 526.938 256.08 526.938C257.226 526.938 258.23 526.767 259.091 526.426C259.962 526.076 260.644 525.593 261.137 524.977C261.629 524.352 261.88 523.623 261.89 522.79C261.88 522.032 261.658 521.407 261.222 520.915C260.786 520.413 260.176 519.996 259.39 519.665C258.613 519.324 257.704 519.021 256.662 518.756L253.353 517.903C250.957 517.288 249.063 516.355 247.671 515.105C246.288 513.846 245.597 512.174 245.597 510.091C245.597 508.377 246.061 506.876 246.989 505.588C247.926 504.3 249.2 503.301 250.81 502.591C252.42 501.871 254.243 501.511 256.279 501.511C258.343 501.511 260.152 501.871 261.705 502.591C263.267 503.301 264.494 504.291 265.384 505.56C266.274 506.819 266.733 508.268 266.762 509.906H261.691Z" fill="#9BA2A6"/>
<path d="M9.35476 290L1.14453 260.909H6.81214L12.0536 282.287H12.3235L17.9201 260.909H23.0764L28.6871 282.301H28.9428L34.1843 260.909H39.8519L31.6417 290H26.4428L20.619 269.588H20.3917L14.5536 290H9.35476Z" fill="#9BA2A6"/>
<path d="M256 0L266.392 13.5H245.608L256 0Z" fill="#F64D00"/>
</g>
</svg>
